<?xml version="1.0" standalone="no"?>
<!DOCTYPE svg PUBLIC "-//W3C//DTD SVG 20010904//EN"
 "http://www.w3.org/TR/2001/REC-SVG-20010904/DTD/svg10.dtd">
<svg version="1.0" xmlns="http://www.w3.org/2000/svg"
 width="417.000000pt" height="333.000000pt" viewBox="0 0 417.000000 333.000000"
 preserveAspectRatio="xMidYMid meet">

<g transform="translate(0.000000,333.000000) scale(0.100000,-0.100000)"
fill="#000000" stroke="none">
<path d="M0 1665 l0 -1665 875 0 875 0 0 313 c0 173 -3 416 -7 540 l-6 227
-559 0 -558 0 0 800 0 800 558 0 559 0 6 158 c4 86 7 232 7 325 l0 167 -875 0
-875 0 0 -1665z m492 -112 c34 -31 11 -93 -35 -93 -27 0 -57 28 -57 53 0 48
56 73 92 40z m0 -370 c34 -31 11 -93 -35 -93 -27 0 -57 28 -57 53 0 48 56 73
92 40z"/>
<path d="M3053 2354 c-3 -8 -1 -20 5 -26 16 -16 42 -2 42 22 0 24 -38 28 -47
4z"/>
<path d="M1885 2253 c-21 -60 -48 -136 -61 -171 l-24 -63 22 3 c16 2 26 16 38
53 l17 50 73 0 73 0 17 -50 c12 -37 22 -51 38 -53 l22 -3 -24 63 c-12 35 -40
111 -60 171 -36 101 -40 107 -66 107 -26 0 -29 -6 -65 -107z m101 -25 l23 -68
-59 0 -59 0 24 70 c29 85 37 100 43 80 3 -8 15 -45 28 -82z"/>
<path d="M2140 2145 c0 -118 1 -125 20 -125 19 0 20 7 20 98 0 96 1 99 25 110
71 32 95 2 95 -120 0 -72 3 -88 15 -88 22 0 22 196 -1 228 -19 27 -87 31 -122
6 -20 -14 -22 -14 -22 0 0 9 -7 16 -15 16 -13 0 -15 -21 -15 -125z"/>
<path d="M2400 2167 c0 -125 11 -147 71 -147 22 0 49 5 59 10 13 7 21 7 25 0
3 -5 13 -10 21 -10 11 0 14 23 14 125 0 118 -1 125 -20 125 -19 0 -20 -7 -20
-94 0 -87 -2 -96 -22 -110 -32 -22 -64 -20 -82 6 -12 16 -16 47 -16 110 0 72
-3 88 -15 88 -12 0 -15 -18 -15 -103z"/>
<path d="M2667 2263 c-20 -19 -3 -28 45 -24 57 4 78 -12 78 -56 0 -19 -5 -23
-34 -23 -50 0 -92 -18 -105 -46 -14 -31 -5 -71 19 -84 24 -13 76 -13 100 0 13
7 21 7 25 0 3 -5 13 -10 22 -10 12 0 14 16 11 104 -4 131 -14 146 -98 146 -31
0 -60 -3 -63 -7z m123 -158 c0 -37 -20 -55 -63 -55 -62 0 -57 75 5 83 18 2 39
5 46 5 7 1 12 -11 12 -33z"/>
<path d="M2890 2145 c0 -118 1 -125 20 -125 19 0 20 7 20 95 l0 94 30 16 c16
8 36 15 45 15 8 0 15 7 15 15 0 20 -44 20 -75 -1 -23 -15 -25 -15 -25 0 0 9
-7 16 -15 16 -13 0 -15 -21 -15 -125z"/>
<path d="M3060 2145 c0 -118 1 -125 20 -125 19 0 20 7 20 125 0 118 -1 125
-20 125 -19 0 -20 -7 -20 -125z"/>
<path d="M3185 2246 c-46 -46 -41 -176 8 -211 12 -8 42 -15 68 -15 40 0 51 4
73 31 22 26 26 40 26 94 0 54 -4 68 -26 94 -22 27 -32 31 -75 31 -39 0 -55 -5
-74 -24z m120 -26 c13 -14 18 -36 18 -75 0 -64 -21 -95 -63 -95 -50 0 -65 21
-65 95 0 54 4 69 19 81 28 20 70 17 91 -6z"/>
<path d="M1843 1813 c-23 -3 -33 -10 -33 -21 0 -14 9 -16 53 -14 112 7 116
-56 13 -194 -36 -49 -66 -95 -66 -101 0 -10 27 -13 100 -13 93 0 100 1 100 20
0 17 -8 19 -71 22 l-70 3 55 73 c56 73 73 121 62 167 -11 43 -71 67 -143 58z"/>
<path d="M2134 1813 c-12 -2 -34 -18 -50 -34 -27 -28 -29 -37 -32 -118 -6
-142 32 -199 125 -188 53 6 77 27 93 85 13 49 12 139 -3 181 -19 53 -77 86
-133 74z m86 -65 c24 -40 27 -151 6 -203 -25 -59 -104 -58 -127 2 -14 38 -13
166 2 195 16 31 28 38 67 38 26 0 36 -6 52 -32z"/>
<path d="M2350 1811 c-20 -4 -36 -12 -38 -22 -2 -13 7 -15 56 -11 67 5 92 -11
92 -56 0 -31 -21 -68 -90 -158 -28 -36 -50 -72 -50 -80 0 -11 20 -14 100 -14
93 0 100 1 100 20 0 17 -8 19 -71 22 l-71 3 51 68 c57 78 75 124 66 167 -11
49 -69 73 -145 61z"/>
<path d="M2583 1813 c-23 -3 -33 -10 -33 -21 0 -14 9 -16 55 -14 66 5 85 -8
85 -53 0 -40 -17 -55 -70 -62 -55 -8 -55 -33 0 -33 30 0 47 -7 65 -25 32 -31
31 -50 -1 -82 -23 -23 -31 -25 -85 -21 -42 3 -59 1 -59 -8 0 -17 24 -24 84
-24 49 0 89 17 108 44 4 6 8 30 8 53 0 33 -5 46 -27 62 l-26 21 21 23 c30 32
29 87 0 114 -25 22 -73 32 -125 26z"/>
</g>
</svg>
